Coordinates
version=1
nRows=9
nColumns=63
inDegrees=yes

Units are S.I. units (second, meters, Newtons, ...)
If the header above contains a line with 'inDegrees', this indicates whether rotational values are in degrees (yes) or radians (no).

endheader
time	pelvis_tilt	pelvis_list	pelvis_rotation	pelvis_tx	pelvis_ty	pelvis_tz	hip_flexion_r	hip_adduction_r	hip_rotation_r	knee_angle_r	knee_angle_r_beta	ankle_angle_r	subtalar_angle_r	mtp_angle_r	hip_flexion_l	hip_adduction_l	hip_rotation_l	knee_angle_l	knee_angle_l_beta	ankle_angle_l	subtalar_angle_l	mtp_angle_l	L5_S1_Flex_Ext	L5_S1_Lat_Bending	L5_S1_axial_rotation	L4_L5_Flex_Ext	L4_L5_Lat_Bending	L4_L5_axial_rotation	L3_L4_Flex_Ext	L3_L4_Lat_Bending	L3_L4_axial_rotation	L2_L3_Flex_Ext	L2_L3_Lat_Bending	L2_L3_axial_rotation	L1_L2_Flex_Ext	L1_L2_Lat_Bending	L1_L2_axial_rotation	L1_T12_Flex_Ext	L1_T12_Lat_Bending	L1_T12_axial_rotation	Abs_r3	Abs_r2	Abs_r1	Abs_t1	Abs_t2	neck_flexion	neck_bending	neck_rotation	arm_flex_r	arm_add_r	arm_rot_r	elbow_flex_r	pro_sup_r	wrist_flex_r	wrist_dev_r	arm_flex_l	arm_add_l	arm_rot_l	elbow_flex_l	pro_sup_l	wrist_flex_l	wrist_dev_l
     11.24200000	    -63.48866084	     -4.68361852	     -5.42707969	     -0.28830898	      1.14614710	      0.04505598	    117.46414738	     -4.59383858	    -10.76390845	     85.16500795	      1.48640980	     28.72443297	      0.01211090	      0.00000000	     89.05930770	    -10.15663559	      2.23588555	     52.31704410	      0.91310467	      9.19201001	      2.73842787	      0.00000000	     -0.09013642	      1.37507714	      0.95133297	     -0.16739235	      1.82885260	      1.01079128	     -0.14808513	      3.34336256	      1.01079128	     -0.10301692	      3.34336256	      0.83241635	     -0.08370068	      2.80405731	      0.77295804	     -0.05150395	      2.12999449	      0.71349973	     -0.64383544	     15.55514764	      5.29102859	      0.00000000	      0.00000000	      0.00000000	      0.00000000	     -0.00000000	     67.46303718	     -4.61454477	     -2.11830583	     40.14359339	     66.82289918	      0.00000000	      5.00000014	     61.41351653	      1.98922552	    -23.37277132	     42.71885969	     64.72447916	      0.00000000	      5.00000014
     11.25000000	    -63.54772963	     -4.74994374	     -4.69225409	     -0.28816388	      1.14687496	      0.04413503	    116.57913021	     -4.93022096	    -10.37650284	     82.18291170	      1.43436240	     28.22164454	      0.44811706	      0.00000000	     89.91834738	     -9.38407495	      2.70994781	     55.40006440	      0.96691353	     10.23095686	      2.32124793	      0.00000000	     -0.08849846	      1.37417612	      0.81164179	     -0.16435049	      1.82765424	      0.86236940	     -0.14539412	      3.34117181	      0.86236940	     -0.10114489	      3.34117181	      0.71018656	     -0.08217967	      2.80221994	      0.65945895	     -0.05056802	      2.12859881	      0.60873134	     -0.63213566	     15.54495509	      4.51410812	      0.00000000	      0.00000000	      0.00000000	      0.00000000	     -0.00000000	     67.54053340	     -4.66391799	     -1.89866667	     40.12224002	     66.86641783	      0.00000000	      5.00000014	     61.54574701	      1.92275789	    -23.27818216	     42.58286363	     64.75062657	      0.00000000	      5.00000014
     11.25800000	    -63.69798054	     -5.42548496	     -4.41112973	     -0.28817798	      1.14787137	      0.04329352	    115.26236894	     -5.14711041	    -10.90402429	     78.69505447	      1.37348781	     28.00400665	      1.38331666	      0.00000000	     91.04681718	     -9.05660721	      3.78573606	     58.55175722	      1.02192095	     11.34043203	      1.97322481	      0.00000000	     -0.08740841	      1.45624468	      0.76954609	     -0.16232617	      1.93680543	      0.81764272	     -0.14360328	      3.54071332	      0.81764272	     -0.09989908	      3.54071332	      0.67335282	     -0.08116745	      2.96957416	      0.62525619	     -0.04994517	      2.25572302	      0.57715956	     -0.62434957	     16.47333111	      4.27998446	      0.00000000	      0.00000000	      0.00000000	      0.00000000	     -0.00000000	     67.92474768	     -4.96468758	     -1.33780966	     39.79767370	     66.98635579	      0.00000000	      5.00000014	     61.67276590	      1.94789020	    -22.83625647	     42.32398343	     64.84161417	      0.00000000	      5.00000014
     11.26700000	    -63.67424791	     -5.43792904	     -3.50611044	     -0.28816347	      1.14832396	      0.04235323	    114.10131284	     -5.58159566	    -10.41712345	     75.60125709	      1.31949085	     27.14371498	      1.70106849	      0.00000000	     91.94192616	     -8.08922376	      4.17710245	     61.66533638	      1.07626315	     12.36207165	      1.84977190	      0.00000000	     -0.09036170	      1.43952408	      0.60393787	     -0.16781071	      1.91456703	      0.64168399	     -0.14845523	      3.50005885	      0.64168399	     -0.10327438	      3.50005885	      0.52844564	     -0.08390987	      2.93547751	      0.49069952	     -0.05163267	      2.22982280	      0.45295340	     -0.64544457	     16.28418431	      3.35892126	      0.00000000	      0.00000000	      0.00000000	      0.00000000	     -0.00000000	     67.92507071	     -5.01481667	     -1.17157202	     39.85514255	     67.01871042	      0.00000000	      5.00000014	     61.85164902	      1.88661800	    -22.65047909	     42.16258455	     64.87697539	      0.00000000	      5.00000014
     11.27500000	    -63.68503268	     -5.64935905	     -2.82587480	     -0.28832116	      1.14867118	      0.04168078	    112.76298649	     -5.87768872	    -10.29082311	     72.31417918	      1.26212052	     26.28313406	      1.96489420	      0.00000000	     93.02472367	     -7.35068684	      4.79951182	     64.88256283	      1.13241435	     13.37286590	      1.93307259	      0.00000000	     -0.08977952	      1.44478100	      0.48989760	     -0.16672954	      1.92155873	      0.52051620	     -0.14749877	      3.51284052	      0.52051620	     -0.10260901	      3.51284052	      0.42866040	     -0.08336926	      2.94619741	      0.39804180	     -0.05130002	      2.23796577	      0.36742320	     -0.64128610	     16.34365161	      2.72466349	      0.00000000	      0.00000000	      0.00000000	      0.00000000	     -0.00000000	     67.96276612	     -5.14824959	     -1.06681503	     39.82711895	     67.04910579	      0.00000000	      5.00000014	     62.09362121	      1.85542997	    -22.20434141	     41.82281702	     64.95026226	      0.00000000	      5.00000014
     11.28300000	    -63.63973786	     -5.72997698	     -2.03514163	     -0.28842453	      1.14887838	      0.04091169	    111.34200279	     -6.28085774	    -10.15571771	     69.06163190	      1.20535286	     25.13530352	      2.13368485	      0.00000000	     94.06047020	     -6.50595130	      5.23126437	     68.01849133	      1.18714663	     14.37486367	      2.10146276	      0.00000000	     -0.09190560	      1.43115366	      0.35549052	     -0.17067789	      1.90343437	      0.37770868	     -0.15099171	      3.47970701	      0.37770868	     -0.10503891	      3.47970701	      0.31105420	     -0.08534354	      2.91840854	      0.28883605	     -0.05251486	      2.21685702	      0.26661789	     -0.65647250	     16.18949644	      1.97713162	      0.00000000	      0.00000000	      0.00000000	      0.00000000	     -0.00000000	     67.92901902	     -5.25800945	     -1.05559724	     39.91032134	     67.06168141	      0.00000000	      5.00000014	     62.30371287	      1.80109814	    -21.74745907	     41.49386486	     65.02246354	      0.00000000	      5.00000014
     11.29200000	    -63.59944282	     -6.13631464	     -1.59944331	     -0.28863311	      1.14887127	      0.04064050	    109.72578320	     -6.43680815	    -10.59913804	     65.67442552	      1.14623496	     23.75934595	      1.89941345	      0.00000000	     95.35395044	     -6.11462249	      5.96330006	     71.36116939	      1.24548736	     15.49880054	      2.94520842	      0.00000000	     -0.09310881	      1.45234488	      0.31698899	     -0.17291237	      1.93161869	      0.33680080	     -0.15296847	      3.53123133	      0.33680080	     -0.10641406	      3.53123133	      0.27736537	     -0.08646084	      2.96162167	      0.25755356	     -0.05320237	      2.24968221	      0.23774174	     -0.66506693	     16.42921572	      1.76299767	      0.00000000	      0.00000000	      0.00000000	      0.00000000	     -0.00000000	     67.90067880	     -5.57999782	     -1.24490027	     39.92511358	     67.06773951	      0.00000000	      5.00000014	     62.60185855	      1.82726653	    -20.58285406	     40.94282961	     65.20259685	      0.00000000	      5.00000014
     11.30000000	    -63.49106352	     -6.03400829	     -0.69826075	     -0.28878906	      1.14839064	      0.04018752	    108.28198284	     -6.86131545	    -10.32806849	     62.64507059	      1.09336274	     22.21047941	      1.82764202	      0.00000000	     96.50855750	     -5.18947328	      6.22972013	     74.54476898	      1.30105166	     16.56923143	      3.28046314	      0.00000000	     -0.08946877	      1.40300567	      0.15837912	     -0.16615246	      1.86599754	      0.16827782	     -0.14698825	      3.41126799	      0.16827782	     -0.10225386	      3.41126799	      0.13858173	     -0.08308070	      2.86100916	      0.12868304	     -0.05112246	      2.17325578	      0.11878434	     -0.63906649	     15.87108075	      0.88085715	      0.00000000	      0.00000000	      0.00000000	      0.00000000	     -0.00000000	     67.63592646	     -5.61762969	     -1.42464018	     40.12106357	     67.05532554	      0.00000000	      5.00000014	     62.82471792	      1.69537099	    -20.02438679	     40.62587883	     65.29372063	      0.00000000	      5.00000014
     11.30800000	    -63.33299444	     -6.08692246	     -0.19157163	     -0.28880741	      1.14764146	      0.04026311	    106.65406897	     -6.97013589	    -10.52785053	     59.55680314	      1.03946231	     20.31746332	      1.30087745	      0.00000000	     97.83821342	     -4.74413604	      6.60599785	     77.93579038	      1.36023615	     17.67507237	      4.07271966	      0.00000000	     -0.09024449	      1.37134368	      0.10168761	     -0.16759304	      1.82388709	      0.10804308	     -0.14826267	      3.33428502	      0.10804308	     -0.10314043	      3.33428502	      0.08897665	     -0.08380103	      2.79644403	      0.08262118	     -0.05156570	      2.12421136	      0.07626570	     -0.64460738	     15.51291395	      0.56555596	      0.00000000	      0.00000000	      0.00000000	      0.00000000	     -0.00000000	     67.31888930	     -5.75757988	     -2.08584234	     40.34577567	     66.99293134	      0.00000000	      5.00000014	     63.09211129	      1.61220188	    -18.85170468	     40.08602520	     65.47988740	      0.00000000	      5.00000014
